<?xml version="1.0" encoding="UTF-8"?>
<svg width="700pt" height="700pt" version="1.1" viewBox="0 0 700 700" xmlns="http://www.w3.org/2000/svg" xmlns:xlink="http://www.w3.org/1999/xlink">
 <defs>
  <symbol id="u" overflow="visible">
   <path d="m2.5469-0.15625c-0.13672 0.074219-0.27734 0.125-0.42188 0.15625-0.13672 0.03125-0.28125 0.046875-0.4375 0.046875-0.46094 0-0.82422-0.125-1.0938-0.375-0.27344-0.25781-0.40625-0.60938-0.40625-1.0469 0-0.44531 0.13281-0.79688 0.40625-1.0469 0.26953-0.25781 0.63281-0.39062 1.0938-0.39062 0.15625 0 0.30078 0.015625 0.4375 0.046875 0.14453 0.03125 0.28516 0.085937 0.42188 0.15625v0.5625c-0.13672-0.082031-0.27344-0.14453-0.40625-0.1875-0.125-0.039063-0.25781-0.0625-0.39062-0.0625-0.26172 0-0.46484 0.085937-0.60938 0.25-0.14844 0.15625-0.21875 0.38281-0.21875 0.67188 0 0.28125 0.070313 0.50781 0.21875 0.67188 0.14453 0.15625 0.34766 0.23438 0.60938 0.23438 0.13281 0 0.26562-0.019531 0.39062-0.0625 0.13281-0.039062 0.26953-0.10156 0.40625-0.1875z"/>
  </symbol>
  <symbol id="b" overflow="visible">
   <path d="m1.8594-1.5156c-0.054687-0.019531-0.10938-0.035156-0.17188-0.046875-0.054688-0.019531-0.10938-0.03125-0.17188-0.03125-0.16797 0-0.29688 0.058594-0.39062 0.17188-0.09375 0.10547-0.14062 0.26172-0.14062 0.46875v0.95312h-0.67188v-2.0781h0.67188v0.34375c0.082031-0.13281 0.17578-0.23438 0.28125-0.29688 0.11328-0.0625 0.25-0.09375 0.40625-0.09375h0.0625c0.03125 0 0.070313 0.007812 0.125 0.015625z"/>
  </symbol>
  <symbol id="a" overflow="visible">
   <path d="m2.3906-1.0469v0.1875h-1.5469c0.007812 0.15625 0.0625 0.27734 0.15625 0.35938 0.10156 0.074219 0.23828 0.10938 0.40625 0.10938 0.14453 0 0.28906-0.019531 0.4375-0.0625 0.14453-0.039063 0.29688-0.10156 0.45312-0.1875v0.51562c-0.15625 0.0625-0.3125 0.10547-0.46875 0.125-0.15625 0.03125-0.32031 0.046875-0.48438 0.046875-0.375 0-0.66797-0.09375-0.875-0.28125-0.21094-0.1875-0.3125-0.45312-0.3125-0.79688s0.10156-0.60938 0.3125-0.79688c0.20703-0.19531 0.48828-0.29688 0.84375-0.29688 0.32031 0 0.58203 0.10156 0.78125 0.29688 0.19531 0.19922 0.29688 0.46094 0.29688 0.78125zm-0.6875-0.21875c0-0.125-0.039063-0.22266-0.10938-0.29688-0.074219-0.082031-0.16797-0.125-0.28125-0.125-0.125 0-0.23047 0.039062-0.3125 0.10938-0.085938 0.074219-0.13672 0.17969-0.15625 0.3125z"/>
  </symbol>
  <symbol id="g" overflow="visible">
   <path d="m1.25-0.9375c-0.13672 0-0.24219 0.027344-0.3125 0.078125-0.074219 0.042969-0.10938 0.10938-0.10938 0.20312 0 0.085938 0.023437 0.15234 0.078125 0.20312 0.0625 0.042969 0.14453 0.0625 0.25 0.0625 0.125 0 0.22656-0.039063 0.3125-0.125 0.082031-0.09375 0.125-0.20703 0.125-0.34375v-0.078125zm1.0156-0.25v1.1875h-0.67188v-0.3125c-0.09375 0.125-0.19922 0.21875-0.3125 0.28125-0.10547 0.050781-0.23438 0.078125-0.39062 0.078125-0.21875 0-0.39844-0.0625-0.53125-0.1875-0.13672-0.125-0.20312-0.28516-0.20312-0.48438 0-0.23828 0.082031-0.41406 0.25-0.53125 0.17578-0.11328 0.44141-0.17188 0.79688-0.17188h0.39062v-0.046875c0-0.10156-0.042969-0.17969-0.125-0.23438-0.085938-0.050781-0.21484-0.078125-0.39062-0.078125-0.13672 0-0.26562 0.015625-0.39062 0.046875s-0.24219 0.074219-0.34375 0.125v-0.5c0.14453-0.039063 0.28516-0.066406 0.42188-0.078125 0.14453-0.019531 0.28906-0.03125 0.4375-0.03125 0.375 0 0.64453 0.074219 0.8125 0.21875 0.16406 0.14844 0.25 0.38672 0.25 0.71875z"/>
  </symbol>
  <symbol id="c" overflow="visible">
   <path d="m1.0469-2.6719v0.59375h0.6875v0.46875h-0.6875v0.89062c0 0.09375 0.015625 0.16406 0.046875 0.20312 0.039062 0.03125 0.11719 0.046875 0.23438 0.046875h0.34375v0.46875h-0.57812c-0.26172 0-0.44922-0.050781-0.5625-0.15625-0.10547-0.11328-0.15625-0.30078-0.15625-0.5625v-0.89062h-0.32812v-0.46875h0.32812v-0.59375z"/>
  </symbol>
  <symbol id="k" overflow="visible">
   <path d="m1.7344-1.7656v-1.125h0.67188v2.8906h-0.67188v-0.29688c-0.09375 0.125-0.19922 0.21484-0.3125 0.26562-0.10547 0.050781-0.23047 0.078125-0.375 0.078125-0.26172 0-0.47656-0.097656-0.64062-0.29688-0.15625-0.20703-0.23438-0.46875-0.23438-0.78125 0-0.32031 0.078125-0.58203 0.23438-0.78125 0.16406-0.20703 0.37891-0.3125 0.64062-0.3125 0.14453 0 0.26953 0.03125 0.375 0.09375 0.11328 0.054688 0.21875 0.14062 0.3125 0.26562zm-0.4375 1.3438c0.13281 0 0.23828-0.050781 0.3125-0.15625 0.082031-0.10156 0.125-0.25391 0.125-0.45312 0-0.19531-0.042969-0.34766-0.125-0.45312-0.074219-0.10156-0.17969-0.15625-0.3125-0.15625-0.14844 0-0.25781 0.054687-0.32812 0.15625-0.074219 0.10547-0.10938 0.25781-0.10938 0.45312 0 0.19922 0.035156 0.35156 0.10938 0.45312 0.070312 0.10547 0.17969 0.15625 0.32812 0.15625z"/>
  </symbol>
  <symbol id="j" overflow="visible">
   <path d="m1.4219-0.42188c0.14453 0 0.25391-0.050781 0.32812-0.15625 0.070312-0.10156 0.10938-0.25391 0.10938-0.45312 0-0.19531-0.039063-0.34766-0.10938-0.45312-0.074219-0.10156-0.18359-0.15625-0.32812-0.15625-0.14844 0-0.25781 0.054687-0.32812 0.15625-0.074219 0.10547-0.10938 0.25781-0.10938 0.45312 0 0.19922 0.035156 0.35156 0.10938 0.45312 0.070312 0.10547 0.17969 0.15625 0.32812 0.15625zm-0.4375-1.3438c0.09375-0.125 0.19141-0.21094 0.29688-0.26562 0.11328-0.0625 0.24219-0.09375 0.39062-0.09375 0.25 0 0.45703 0.10547 0.625 0.3125 0.16406 0.19922 0.25 0.46094 0.25 0.78125 0 0.3125-0.085937 0.57422-0.25 0.78125-0.16797 0.19922-0.375 0.29688-0.625 0.29688-0.14844 0-0.27734-0.027344-0.39062-0.078125-0.10547-0.0625-0.20312-0.14844-0.29688-0.26562v0.29688h-0.67188v-2.8906h0.67188z"/>
  </symbol>
  <symbol id="f" overflow="visible">
   <path d="m0.046875-2.0781h0.65625l0.5625 1.4062 0.48438-1.4062h0.65625l-0.875 2.2812c-0.085938 0.22656-0.1875 0.38281-0.3125 0.46875-0.11719 0.09375-0.26562 0.14062-0.45312 0.14062h-0.39062v-0.42188h0.21875c0.10156 0 0.17969-0.023437 0.23438-0.0625 0.050781-0.03125 0.09375-0.09375 0.125-0.1875l0.015625-0.0625z"/>
  </symbol>
  <symbol id="e" overflow="visible">
   <path d="m0.29688-0.8125v-1.2656h0.67188v0.20312c0 0.11719-0.007812 0.26172-0.015625 0.4375v0.32812c0 0.16797 0.003906 0.28906 0.015625 0.35938 0.007812 0.074219 0.023438 0.13281 0.046875 0.17188 0.03125 0.042969 0.066406 0.074219 0.10938 0.09375 0.039062 0.023437 0.09375 0.03125 0.15625 0.03125 0.13281 0 0.23828-0.050781 0.3125-0.15625 0.082031-0.10156 0.125-0.25 0.125-0.4375v-1.0312h0.67188v2.0781h-0.67188v-0.29688c-0.10547 0.11719-0.21484 0.20312-0.32812 0.26562-0.10547 0.050781-0.22656 0.078125-0.35938 0.078125-0.24219 0-0.42188-0.070312-0.54688-0.21875-0.125-0.14453-0.1875-0.35938-0.1875-0.64062z"/>
  </symbol>
  <symbol id="t" overflow="visible">
   <path d="m0.21875-2.0781h1.8125v0.46875l-1.0938 1.1406h1.0938v0.46875h-1.8594v-0.46875l1.0938-1.1406h-1.0469z"/>
  </symbol>
  <symbol id="i" overflow="visible">
   <path d="m0.3125-2.0781h0.67188v2.0781h-0.67188zm0-0.8125h0.67188v0.54688h-0.67188z"/>
  </symbol>
  <symbol id="s" overflow="visible">
   <path d="m1.9375-2.0156v0.51562c-0.13672-0.0625-0.27344-0.10938-0.40625-0.14062-0.13672-0.03125-0.26172-0.046875-0.375-0.046875-0.125 0-0.21875 0.015625-0.28125 0.046875s-0.09375 0.078125-0.09375 0.14062 0.019531 0.10938 0.0625 0.14062c0.050781 0.023437 0.13281 0.039063 0.25 0.046875l0.125 0.015625c0.34375 0.054687 0.57031 0.13281 0.6875 0.23438 0.11328 0.09375 0.17188 0.24609 0.17188 0.45312 0 0.21875-0.085937 0.38672-0.25 0.5-0.15625 0.10547-0.39844 0.15625-0.71875 0.15625-0.13672 0-0.28125-0.011719-0.4375-0.03125-0.14844-0.019531-0.29297-0.050781-0.4375-0.09375v-0.5c0.125 0.0625 0.25391 0.10938 0.39062 0.14062 0.14453 0.03125 0.28906 0.046875 0.4375 0.046875 0.125 0 0.21875-0.015625 0.28125-0.046875 0.070312-0.039062 0.10938-0.09375 0.10938-0.15625s-0.027344-0.10938-0.078125-0.14062c-0.042969-0.03125-0.13281-0.050781-0.26562-0.0625l-0.10938-0.015625c-0.30469-0.039062-0.51172-0.10938-0.625-0.20312-0.11719-0.10156-0.17188-0.25781-0.17188-0.46875 0-0.21875 0.070313-0.37891 0.21875-0.48438 0.15625-0.10156 0.38281-0.15625 0.6875-0.15625 0.125 0 0.25391 0.011719 0.39062 0.03125 0.13281 0.011719 0.28125 0.039062 0.4375 0.078125z"/>
  </symbol>
  <symbol id="h" overflow="visible">
   <path d="m1.6875-2.8906v0.4375h-0.375c-0.09375 0-0.16406 0.023437-0.20312 0.0625-0.03125 0.03125-0.046875 0.089844-0.046875 0.17188v0.14062h0.57812v0.46875h-0.57812v1.6094h-0.65625v-1.6094h-0.32812v-0.46875h0.32812v-0.14062c0-0.22656 0.0625-0.39453 0.1875-0.5 0.125-0.11328 0.31641-0.17188 0.57812-0.17188z"/>
  </symbol>
  <symbol id="d" overflow="visible">
   <path d="m1.3125-1.6562c-0.14844 0-0.26172 0.058594-0.34375 0.17188-0.074219 0.10547-0.10938 0.25781-0.10938 0.45312 0 0.19922 0.035156 0.35156 0.10938 0.45312 0.082031 0.10547 0.19531 0.15625 0.34375 0.15625 0.14453 0 0.25391-0.050781 0.32812-0.15625 0.070313-0.10156 0.10938-0.25391 0.10938-0.45312 0-0.19531-0.039062-0.34766-0.10938-0.45312-0.074219-0.11328-0.18359-0.17188-0.32812-0.17188zm0-0.46875c0.35156 0 0.62891 0.10156 0.82812 0.29688 0.20703 0.1875 0.3125 0.45312 0.3125 0.79688 0 0.33594-0.10547 0.60156-0.3125 0.79688-0.19922 0.1875-0.47656 0.28125-0.82812 0.28125-0.36719 0-0.65234-0.09375-0.85938-0.28125-0.19922-0.19531-0.29688-0.46094-0.29688-0.79688 0-0.34375 0.097656-0.60938 0.29688-0.79688 0.20703-0.19531 0.49219-0.29688 0.85938-0.29688z"/>
  </symbol>
  <symbol id="r" overflow="visible">
   <path d="m2.25-1.7344c0.082031-0.125 0.17969-0.21875 0.29688-0.28125 0.11328-0.070313 0.23828-0.10938 0.375-0.10938 0.23828 0 0.42188 0.074219 0.54688 0.21875 0.125 0.14844 0.1875 0.35938 0.1875 0.64062v1.2656h-0.67188v-1.0781-0.046875c0.007813-0.019531 0.015625-0.046875 0.015625-0.078125 0-0.14453-0.027344-0.25-0.078125-0.3125-0.042969-0.070313-0.10938-0.10938-0.20312-0.10938-0.125 0-0.22656 0.054688-0.29688 0.15625-0.0625 0.10547-0.10156 0.25781-0.10938 0.45312v1.0156h-0.65625v-1.0781c0-0.22656-0.023438-0.375-0.0625-0.4375-0.042969-0.070313-0.11719-0.10938-0.21875-0.10938-0.125 0-0.22656 0.054688-0.29688 0.15625-0.0625 0.10547-0.09375 0.25781-0.09375 0.45312v1.0156h-0.67188v-2.0781h0.67188v0.3125c0.082031-0.125 0.17578-0.21094 0.28125-0.26562 0.10156-0.0625 0.21875-0.09375 0.34375-0.09375 0.14453 0 0.26953 0.039062 0.375 0.10938 0.11328 0.0625 0.20312 0.15625 0.26562 0.28125z"/>
  </symbol>
  <symbol id="q" overflow="visible">
   <path d="m2.4062-1.2656v1.2656h-0.67188v-0.96875c0-0.17578-0.007813-0.29688-0.015625-0.35938 0-0.070313-0.011719-0.125-0.03125-0.15625-0.03125-0.039063-0.070312-0.070313-0.10938-0.09375-0.042969-0.03125-0.09375-0.046875-0.15625-0.046875-0.13672 0-0.24609 0.054688-0.32812 0.15625-0.074219 0.10547-0.10938 0.25781-0.10938 0.45312v1.0156h-0.67188v-2.8906h0.67188v1.125c0.09375-0.125 0.19531-0.21094 0.3125-0.26562 0.11328-0.0625 0.23828-0.09375 0.375-0.09375 0.23828 0 0.42188 0.074219 0.54688 0.21875 0.125 0.14844 0.1875 0.35938 0.1875 0.64062z"/>
  </symbol>
  <symbol id="p" overflow="visible">
   <path d="m0.34375-2.7656h0.79688l1.0156 1.8906v-1.8906h0.67188v2.7656h-0.79688l-1-1.9062v1.9062h-0.6875z"/>
  </symbol>
  <symbol id="o" overflow="visible">
   <path d="m2.4062-1.2656v1.2656h-0.67188v-0.96875c0-0.17578-0.007813-0.29688-0.015625-0.35938 0-0.070313-0.011719-0.125-0.03125-0.15625-0.03125-0.039063-0.070312-0.070313-0.10938-0.09375-0.042969-0.03125-0.09375-0.046875-0.15625-0.046875-0.13672 0-0.24609 0.054688-0.32812 0.15625-0.074219 0.10547-0.10938 0.25781-0.10938 0.45312v1.0156h-0.67188v-2.0781h0.67188v0.3125c0.09375-0.125 0.19531-0.21094 0.3125-0.26562 0.11328-0.0625 0.23828-0.09375 0.375-0.09375 0.23828 0 0.42188 0.074219 0.54688 0.21875 0.125 0.14844 0.1875 0.35938 0.1875 0.64062z"/>
  </symbol>
  <symbol id="n" overflow="visible">
   <path d="m0.34375-2.7656h1.1875c0.35156 0 0.625 0.078125 0.8125 0.23438s0.28125 0.38281 0.28125 0.67188c0 0.29297-0.09375 0.51562-0.28125 0.67188s-0.46094 0.23438-0.8125 0.23438h-0.46875v0.95312h-0.71875zm0.71875 0.51562v0.76562h0.39062c0.14453 0 0.25391-0.03125 0.32812-0.09375 0.070312-0.0625 0.10938-0.15625 0.10938-0.28125s-0.039063-0.21875-0.10938-0.28125c-0.074219-0.070313-0.18359-0.10938-0.32812-0.10938z"/>
  </symbol>
  <symbol id="m" overflow="visible">
   <path d="m0.3125-2.0781h0.67188v2.0469c0 0.26953-0.070313 0.47656-0.20312 0.625-0.13672 0.14453-0.32812 0.21875-0.57812 0.21875h-0.32812v-0.42188h0.10938c0.125 0 0.20703-0.03125 0.25-0.09375 0.050781-0.054687 0.078125-0.16406 0.078125-0.32812zm0-0.8125h0.67188v0.54688h-0.67188z"/>
  </symbol>
  <symbol id="l" overflow="visible">
   <path d="m2-2.0156v0.54688c-0.09375-0.0625-0.1875-0.10938-0.28125-0.14062-0.085938-0.03125-0.17969-0.046875-0.28125-0.046875-0.17969 0-0.32031 0.058594-0.42188 0.17188-0.10547 0.10547-0.15625 0.25781-0.15625 0.45312 0 0.1875 0.050781 0.33984 0.15625 0.45312 0.10156 0.10547 0.24219 0.15625 0.42188 0.15625 0.10156 0 0.20312-0.015625 0.29688-0.046875s0.17969-0.078125 0.26562-0.14062v0.54688c-0.10547 0.042969-0.21484 0.066406-0.32812 0.078125-0.10547 0.019531-0.21094 0.03125-0.3125 0.03125-0.375 0-0.67188-0.09375-0.89062-0.28125-0.21094-0.1875-0.3125-0.45312-0.3125-0.79688s0.10156-0.60938 0.3125-0.79688c0.21875-0.19531 0.51562-0.29688 0.89062-0.29688 0.10156 0 0.20703 0.011719 0.3125 0.03125 0.11328 0.023438 0.22266 0.046875 0.32812 0.078125z"/>
  </symbol>
 </defs>
 <g>
  <path d="m126.53 111.54c4.5547 0 9.1055-0.75781 12.898-1.5195l61.465 77.398c-18.211 20.488-37.18 39.457-56.152 58.43 9.1055 8.3477 17.453 17.453 26.559 25.801 31.871-22.766 63.738-44.77 96.367-67.535 22.766-32.629 47.805-66.016 71.328-99.402-10.625-9.8633-19.73-18.211-29.594-27.316-18.211 18.969-37.941 36.422-56.152 54.633l-73.605-58.43c1.5195-5.3125 2.2773-12.141 2.2773-17.453 0-31.109-24.281-56.152-55.395-56.152-31.109 0-55.395 25.039-55.395 56.152 0 30.352 24.281 55.395 55.395 55.395z" fill-rule="evenodd"/>
  <path d="m573.47 111.54c-4.5547 0-8.3477-0.75781-13.66-1.5195l-61.465 77.398c18.969 20.488 37.941 39.457 56.152 58.43-8.3477 8.3477-16.695 17.453-25.039 25.801-32.629-22.766-65.258-44.77-97.887-67.535-22.766-32.629-47.047-66.016-70.57-99.402 10.625-9.8633 19.73-18.211 29.594-27.316 18.211 18.969 37.18 36.422 56.152 54.633l73.605-58.43c-1.5195-5.3125-3.0352-12.141-3.0352-17.453 0-31.109 25.039-56.152 56.152-56.152 30.352 0 55.395 25.039 55.395 56.152 0 30.352-25.039 55.395-55.395 55.395z" fill-rule="evenodd"/>
  <path d="m398.18 180.6c-15.934 14.418-32.629 28.836-47.805 42.492-16.695-13.66-32.629-28.074-49.324-42.492-12.141 23.523-31.871 44.77-56.91 59.188l38.699 43.254c-55.395 50.082-110.79 99.402-165.42 151.76-14.418 43.254-31.871 82.711-46.289 125.2 41.734-13.66 88.023-25.801 129.76-40.219l149.48-163.14 148.73 163.14c41.734 14.418 88.023 26.559 129.76 40.219-15.176-42.492-31.871-81.953-45.527-125.2-56.152-52.359-110.79-101.68-166.18-151.76l38.699-43.254c-25.801-14.418-44.77-35.664-57.668-59.188z" fill-rule="evenodd"/>
  <use x="71.136719" y="571.382812" xlink:href="#u"/>
  <use x="73.921875" y="571.382812" xlink:href="#b"/>
  <use x="75.792969" y="571.382812" xlink:href="#a"/>
  <use x="78.367188" y="571.382812" xlink:href="#g"/>
  <use x="80.925781" y="571.382812" xlink:href="#c"/>
  <use x="82.742188" y="571.382812" xlink:href="#a"/>
  <use x="85.3125" y="571.382812" xlink:href="#k"/>
  <use x="89.351562" y="571.382812" xlink:href="#j"/>
  <use x="92.066406" y="571.382812" xlink:href="#f"/>
  <use x="95.859375" y="571.382812" xlink:href="#e"/>
  <use x="98.5625" y="571.382812" xlink:href="#t"/>
  <use x="100.769531" y="571.382812" xlink:href="#a"/>
  <use x="103.34375" y="571.382812" xlink:href="#i"/>
  <use x="104.644531" y="571.382812" xlink:href="#b"/>
  <use x="107.835938" y="571.382812" xlink:href="#s"/>
  <use x="110.09375" y="571.382812" xlink:href="#f"/>
  <use x="112.566406" y="571.382812" xlink:href="#g"/>
  <use x="115.128906" y="571.382812" xlink:href="#b"/>
  <use x="117" y="571.382812" xlink:href="#i"/>
  <use x="118.296875" y="571.382812" xlink:href="#a"/>
  <use x="120.871094" y="571.382812" xlink:href="#h"/>
  <use x="71.136719" y="575.175781" xlink:href="#h"/>
  <use x="72.789062" y="575.175781" xlink:href="#b"/>
  <use x="74.660156" y="575.175781" xlink:href="#d"/>
  <use x="77.265625" y="575.175781" xlink:href="#r"/>
  <use x="82.539062" y="575.175781" xlink:href="#c"/>
  <use x="84.355469" y="575.175781" xlink:href="#q"/>
  <use x="87.054688" y="575.175781" xlink:href="#a"/>
  <use x="90.949219" y="575.175781" xlink:href="#p"/>
  <use x="94.125" y="575.175781" xlink:href="#d"/>
  <use x="96.730469" y="575.175781" xlink:href="#e"/>
  <use x="99.433594" y="575.175781" xlink:href="#o"/>
  <use x="103.453125" y="575.175781" xlink:href="#n"/>
  <use x="106.234375" y="575.175781" xlink:href="#b"/>
  <use x="108.105469" y="575.175781" xlink:href="#d"/>
  <use x="110.710938" y="575.175781" xlink:href="#m"/>
  <use x="112.011719" y="575.175781" xlink:href="#a"/>
  <use x="114.585938" y="575.175781" xlink:href="#l"/>
  <use x="116.835938" y="575.175781" xlink:href="#c"/>
 </g>
</svg>
