<?xml version="1.0" encoding="UTF-8"?>
<svg width="700pt" height="700pt" version="1.1" viewBox="0 0 700 700" xmlns="http://www.w3.org/2000/svg">
 <path d="m273.81 523.81 26.668-26.668-167.62-169.52-26.668 26.668 70.477 72.383-106.67 106.67 26.668 26.668 106.67-106.67 70.477 70.477zm150.48 0-26.668-26.668 169.52-169.52 26.668 26.668-70.477 72.383 106.67 106.67-26.668 26.668-106.67-106.67-72.383 70.477zm83.809-154.29-68.57 68.57-89.523-80-89.523 80-70.477-68.57 76.191-85.715-188.57-167.62-7.6172-116.19 116.19 7.6172 163.81 184.76 163.81-184.76 116.19-7.6172-9.5234 116.19-188.57 167.62 76.191 85.715z" fill-rule="evenodd"/>
</svg>
